HIERARCHY
ROOT Hips
{
  OFFSET 5.72205e-005 65.662 3.42586
  CHANNELS 6 Xposition Yposition Zposition Zrotation Xrotation Yrotation
  JOINT Chest
  {
    OFFSET 0 8.7983 -4.7612
    CHANNELS 3 Zrotation Xrotation Yrotation
    JOINT Chest2
    {
      OFFSET 0 8.0291 0.4195
      CHANNELS 3 Zrotation Xrotation Yrotation
      JOINT Chest3
      {
        OFFSET 0 9.9351 -2.2114
        CHANNELS 3 Zrotation Xrotation Yrotation
        JOINT Neck
        {
          OFFSET 0 22.3885 -0.4656
          CHANNELS 3 Zrotation Xrotation Yrotation
          JOINT Head
          {
            OFFSET -0.0001 12.643 3.4389
            CHANNELS 3 Zrotation Xrotation Yrotation
            End Site
            {
              OFFSET 0.0001 17.6655 0.5274
            }
          }
        }
        JOINT LeftCollar
        {
          OFFSET 2.2603 21.606 7.4023
          CHANNELS 3 Zrotation Xrotation Yrotation
          JOINT LeftShoulder
          {
            OFFSET 13.5163 -1.1332 -5.0146
            CHANNELS 3 Zrotation Xrotation Yrotation
            JOINT LeftElbow
            {
              OFFSET -0.0995 -28.05 -0.2431
              CHANNELS 3 Zrotation Xrotation Yrotation
              JOINT LeftWrist
              {
                OFFSET 0.0679 -23.3996 -0.1402
                CHANNELS 3 Zrotation Xrotation Yrotation
                JOINT LeftFinger1
                {
                  OFFSET 0.7932 -9.069 2.5189
                  CHANNELS 3 Zrotation Xrotation Yrotation
                  JOINT LeftFinger11
                  {
                    OFFSET -0.8272 -3.3923 0.5977
                    CHANNELS 3 Zrotation Xrotation Yrotation
                    JOINT LeftFinger12
                    {
                      OFFSET -0.5649 -2.3158 0.4082
                      CHANNELS 3 Zrotation Xrotation Yrotation
                      End Site
                      {
                        OFFSET -0.4919 -1.6479 0.2673
                      }
                    }
                  }
                }
                JOINT LeftFinger2
                {
                  OFFSET 0.9159 -9.2044 0.2193
                  CHANNELS 3 Zrotation Xrotation Yrotation
                  JOINT LeftFinger21
                  {
                    OFFSET 0.0117 -4.1944 -0.0248
                    CHANNELS 3 Zrotation Xrotation Yrotation
                    JOINT LeftFinger22
                    {
                      OFFSET 0.0071 -2.3249 -0.0142
                      CHANNELS 3 Zrotation Xrotation Yrotation
                      End Site
                      {
                        OFFSET -0.1475 -2.0882 0.0028
                      }
                    }
                  }
                }
                JOINT LeftFinger3
                {
                  OFFSET 0.6113 -8.7231 -2.0637
                  CHANNELS 3 Zrotation Xrotation Yrotation
                  JOINT LeftFinger31
                  {
                    OFFSET -0.1927 -3.8059 -0.2383
                    CHANNELS 3 Zrotation Xrotation Yrotation
                    JOINT LeftFinger32
                    {
                      OFFSET -0.1091 -2.1688 -0.1362
                      CHANNELS 3 Zrotation Xrotation Yrotation
                      End Site
                      {
                        OFFSET -0.2358 -1.9176 -0.0906
                      }
                    }
                  }
                }
                JOINT LeftFinger4
                {
                  OFFSET -0.6151 -8.0947 -3.5641
                  CHANNELS 3 Zrotation Xrotation Yrotation
                  JOINT LeftFinger41
                  {
                    OFFSET -0.4882 -2.341 -0.6462
                    CHANNELS 3 Zrotation Xrotation Yrotation
                    JOINT LeftFinger42
                    {
                      OFFSET -0.3575 -1.7167 -0.4742
                      CHANNELS 3 Zrotation Xrotation Yrotation
                      End Site
                      {
                        OFFSET -0.4187 -1.5237 -0.3496
                      }
                    }
                  }
                }
                JOINT LeftFinger0
                {
                  OFFSET -1.42 -1.8761 1.4223
                  CHANNELS 3 Zrotation Xrotation Yrotation
                  JOINT LeftFinger01
                  {
                    OFFSET -1.1471 -3.4929 2.6334
                    CHANNELS 3 Zrotation Xrotation Yrotation
                    JOINT LeftFinger02
                    {
                      OFFSET -0.823 -2.3 1.6571
                      CHANNELS 3 Zrotation Xrotation Yrotation
                      End Site
                      {
                        OFFSET -0.5822 -1.6914 1.1582
                      }
                    }
                  }
                }
              }
            }
          }
        }
        JOINT RightCollar
        {
          OFFSET -2.2603 21.606 7.4023
          CHANNELS 3 Zrotation Xrotation Yrotation
          JOINT RightShoulder
          {
            OFFSET -13.5187 -1.1334 -5.0155
            CHANNELS 3 Zrotation Xrotation Yrotation
            JOINT RightElbow
            {
              OFFSET 0.0994 -28.0499 -0.2431
              CHANNELS 3 Zrotation Xrotation Yrotation
              JOINT RightWrist
              {
                OFFSET -0.0679 -23.3996 -0.1402
                CHANNELS 3 Zrotation Xrotation Yrotation
                JOINT RightFinger1
                {
                  OFFSET -0.7932 -9.0691 2.5189
                  CHANNELS 3 Zrotation Xrotation Yrotation
                  JOINT RightFinger11
                  {
                    OFFSET 0.8272 -3.3923 0.5977
                    CHANNELS 3 Zrotation Xrotation Yrotation
                    JOINT RightFinger12
                    {
                      OFFSET 0.565 -2.3158 0.4082
                      CHANNELS 3 Zrotation Xrotation Yrotation
                      End Site
                      {
                        OFFSET 0.4919 -1.6479 0.2673
                      }
                    }
                  }
                }
                JOINT RightFinger2
                {
                  OFFSET -0.916 -9.2044 0.2193
                  CHANNELS 3 Zrotation Xrotation Yrotation
                  JOINT RightFinger21
                  {
                    OFFSET -0.0117 -4.1944 -0.0248
                    CHANNELS 3 Zrotation Xrotation Yrotation
                    JOINT RightFinger22
                    {
                      OFFSET -0.0071 -2.3249 -0.0142
                      CHANNELS 3 Zrotation Xrotation Yrotation
                      End Site
                      {
                        OFFSET 0.1475 -2.0882 0.0028
                      }
                    }
                  }
                }
                JOINT RightFinger3
                {
                  OFFSET -0.6113 -8.7231 -2.0637
                  CHANNELS 3 Zrotation Xrotation Yrotation
                  JOINT RightFinger31
                  {
                    OFFSET 0.1927 -3.8059 -0.2383
                    CHANNELS 3 Zrotation Xrotation Yrotation
                    JOINT RightFinger32
                    {
                      OFFSET 0.1091 -2.1688 -0.1362
                      CHANNELS 3 Zrotation Xrotation Yrotation
                      End Site
                      {
                        OFFSET 0.2358 -1.9176 -0.0906
                      }
                    }
                  }
                }
                JOINT RightFinger4
                {
                  OFFSET 0.6151 -8.0947 -3.564
                  CHANNELS 3 Zrotation Xrotation Yrotation
                  JOINT RightFinger41
                  {
                    OFFSET 0.4882 -2.341 -0.6462
                    CHANNELS 3 Zrotation Xrotation Yrotation
                    JOINT RightFinger42
                    {
                      OFFSET 0.3574 -1.7166 -0.4742
                      CHANNELS 3 Zrotation Xrotation Yrotation
                      End Site
                      {
                        OFFSET 0.4187 -1.5237 -0.3496
                      }
                    }
                  }
                }
                JOINT RightFinger0
                {
                  OFFSET 1.4199 -1.8761 1.4221
                  CHANNELS 3 Zrotation Xrotation Yrotation
                  JOINT RightFinger01
                  {
                    OFFSET 1.1472 -3.4929 2.6336
                    CHANNELS 3 Zrotation Xrotation Yrotation
                    JOINT RightFinger02
                    {
                      OFFSET 0.8229 -2.3 1.6571
                      CHANNELS 3 Zrotation Xrotation Yrotation
                      End Site
                      {
                        OFFSET 0.5822 -1.6914 1.1582
                      }
                    }
                  }
                }
              }
            }
          }
        }
      }
    }
  }
  JOINT RightHip
  {
    OFFSET -9.412 3.9771 -0.7758
    CHANNELS 3 Zrotation Xrotation Yrotation
    JOINT RightKnee
    {
      OFFSET -0.7531 -40.938 0
      CHANNELS 3 Zrotation Xrotation Yrotation
      JOINT RightAnkle
      {
        OFFSET 0 -40.1986 0
        CHANNELS 3 Zrotation Xrotation Yrotation
        JOINT RightToe
        {
          OFFSET 0 -4.4182 9.239
          CHANNELS 3 Zrotation Xrotation Yrotation
          End Site
          {
            OFFSET 0 0 6.1981
          }
        }
      }
    }
  }
  JOINT LeftHip
  {
    OFFSET 9.4119 3.9773 -0.7758
    CHANNELS 3 Zrotation Xrotation Yrotation
    JOINT LeftKnee
    {
      OFFSET 0.7532 -40.9383 0
      CHANNELS 3 Zrotation Xrotation Yrotation
      JOINT LeftAnkle
      {
        OFFSET 0 -40.1986 0
        CHANNELS 3 Zrotation Xrotation Yrotation
        JOINT LeftToe
        {
          OFFSET 0 -4.4182 9.239
          CHANNELS 3 Zrotation Xrotation Yrotation
          End Site
          {
            OFFSET 0 0 6.1981
          }
        }
      }
    }
  }
}
MOTION
Frames:	4
Frame Time:	0.0333333
5.72205e-005 65.662 3.42586 0 0 -0 0 0 -0 0 0 -0 0 0 -0 0 0 -0 0 0 -0 0 0 -12.5014 88.1196 14.2451 10.6914 -0.00160068 -0.00239207 0.000740045 -8.4365e-005 7.00714e-005 -9.52055e-007 9.93923e-017 -1.98785e-016 -1.59028e-015 9.93923e-017 -5.96354e-016 -1.59028e-015 -9.93923e-017 -5.96354e-016 -1.59028e-015 9.93923e-017 -1.98785e-016 -1.59028e-015 -0.0128176 0.00232552 8.52707e-005 9.93923e-017 5.96354e-016 -0 9.93923e-017 -1.98785e-016 -1.59028e-015 -0.0160551 0.00299681 0.000857156 -2.48481e-016 0 3.18055e-015 9.93923e-017 -1.98785e-016 -1.59028e-015 -0.0125865 0.0031206 0.00282719 0 1.98785e-016 -0 9.93923e-017 -1.98785e-016 -1.59028e-015 9.93923e-017 -5.96354e-016 -1.59028e-015 -9.93923e-017 -5.96354e-016 -1.59028e-015 -0.865644 0.16582 7.03859 -88.0329 10.2057 -10.5567 0.0015593 -0.00248883 -0.000788628 7.87605e-005 4.10553e-005 1.24965e-005 -3.97569e-016 -7.95139e-016 3.18055e-015 -1.98785e-016 -3.97569e-016 3.18055e-015 -1.98785e-016 0 3.18055e-015 -3.97569e-016 -7.95139e-016 3.18055e-015 0.0129473 0.00231697 -8.70038e-005 9.93923e-017 -7.95139e-016 1.59028e-015 -3.97569e-016 -7.95139e-016 3.18055e-015 0.0163314 0.00303369 -0.000872333 3.97569e-016 7.95139e-016 -3.18055e-015 -3.97569e-016 -7.95139e-016 3.18055e-015 0.0145763 0.00367772 -0.00326275 9.93923e-017 -3.97569e-016 -0 -3.97569e-016 -7.95139e-016 3.18055e-015 -1.98785e-016 -3.97569e-016 3.18055e-015 -1.98785e-016 0 3.18055e-015 3.42482 1.32465 -0.0626183 0.000117508 0.717283 0.000978199 -3.4257 -2.04197 -0.0604716 6.47761e-025 0 -0 -3.42483 1.34017 0.0627307 -0.000193936 0.682302 -0.0013703 3.42574 -2.02253 0.0595886 -8.45714e-024 0 -7.40531e-025 
0.0543866 37.0497 8.15408 -4.13197e-007 -33.334 -1.43086e-007 0.740711 -0.00206666 0.0739821 1.48141 -0.00319595 0.147984 1.48141 -0.00319027 0.147984 -0.000187354 10.3695 -1.9302e-005 -2.65669e-007 5.92481 3.19235e-008 -0.000189454 7.30881e-006 -12.5014 78.9801 19.0679 5.39922 -1.84196 -11.1449 -7.9276 -8.37725 1.53413 -0.147913 5.56597e-015 -1.59028e-015 -0 4.77083e-015 -1.59028e-015 -3.18055e-015 2.38542e-015 -3.18055e-015 3.18055e-015 5.56597e-015 -1.59028e-015 -0 -0.0128847 0.0023383 8.10958e-005 -7.95139e-016 3.18055e-015 -0 5.56597e-015 -1.59028e-015 -0 -0.0161 0.00300909 0.000863734 -1.59028e-015 0 -3.18055e-015 5.56597e-015 -1.59028e-015 -0 -0.012591 0.00312151 0.00282985 -7.95139e-016 4.77083e-015 -3.18055e-015 5.56597e-015 -1.59028e-015 -0 4.77083e-015 -1.59028e-015 -3.18055e-015 2.38542e-015 -3.18055e-015 3.18055e-015 -0.867486 -3.53826 6.98254 -92.0744 -5.96709 -31.6996 14.6428 -45.562 1.06182 -2.6809 -6.11603 -0.0660728 -6.36111e-015 -5.96354e-015 1.59028e-015 6.36111e-015 4.37326e-015 -3.97569e-015 3.18055e-015 -2.78299e-015 7.95139e-016 -6.36111e-015 -5.96354e-015 1.59028e-015 0.0129382 0.0023191 -8.80419e-005 -5.51738e-032 3.97569e-016 7.95139e-015 -6.36111e-015 -5.96354e-015 1.59028e-015 0.0163831 0.00303742 -0.00087409 9.54166e-015 1.59028e-015 -1.59028e-015 -6.36111e-015 -5.96354e-015 1.59028e-015 0.0146276 0.0036885 -0.0032865 3.18055e-015 3.57812e-015 3.18055e-015 -6.36111e-015 -5.96354e-015 1.59028e-015 6.36111e-015 4.37326e-015 -3.97569e-015 3.18055e-015 -2.78299e-015 7.95139e-016 -0.7243 -14.1966 -3.15989 0.126445 38.1712 -0.885808 -3.27596 4.60514 -0.406421 -2.98177e-016 -7.95139e-016 -0 2.33953 1.72423 0.0923427 0.000180159 2.01191 0.587171 4.88934 14.6987 -1.62195 -3.10971e-006 8.49512e-006 -9.47004e-007 
0.139404 10.4092 10.2135 -0 -66.6681 -0 1.48132 -0.00797415 0.147872 2.96266 -0.0121062 0.295901 2.96266 -0.0121102 0.2959 5.1331e-005 20.7389 7.06838e-006 -8.49975e-007 11.8496 -3.8701e-006 5.58824e-005 -2.74853e-006 -12.5014 69.5234 23.5538 0.130209 -3.87402 -22.3024 -16.21 -16.7596 3.07327 -0.0704391 6.84122e-006 -7.16098e-006 -6.81897e-006 -6.36111e-015 0 -6.36111e-015 -5.51176e-006 5.17832e-006 1.78819e-006 6.84122e-006 -7.16098e-006 -6.81897e-006 -0.0128392 0.00231733 8.56866e-005 -1.09588e-005 1.12045e-005 2.37312e-007 6.84122e-006 -7.16098e-006 -6.81897e-006 -0.0160844 0.0029984 0.000860681 8.29179e-006 -4.21283e-006 -7.16252e-006 6.84122e-006 -7.16098e-006 -6.81897e-006 -0.0124817 0.00309182 0.00280191 1.66586e-006 1.65467e-007 2.20497e-006 6.84122e-006 -7.16098e-006 -6.81897e-006 -6.36111e-015 0 -6.36111e-015 -5.51176e-006 5.17832e-006 1.78819e-006 -0.872548 -7.24236 6.92608 -95.8148 -22.5246 -52.2081 111.985 -77.4873 86.4804 -5.38217 -12.2209 -0.0606169 2.64834e-031 -9.54166e-015 1.59028e-015 -9.54166e-015 1.59028e-015 -0 1.03998e-006 8.39832e-007 -1.32639e-006 2.64834e-031 -9.54166e-015 1.59028e-015 0.0129481 0.00231446 -8.69012e-005 2.1233e-006 -2.62312e-006 1.16926e-006 2.64834e-031 -9.54166e-015 1.59028e-015 0.0163123 0.00305123 -0.000864981 5.48625e-006 1.06241e-005 4.77981e-006 2.64834e-031 -9.54166e-015 1.59028e-015 0.0146212 0.00370055 -0.0032618 1.21256e-007 6.50378e-006 3.79467e-006 2.64834e-031 -9.54166e-015 1.59028e-015 -9.54166e-015 1.59028e-015 -0 1.03998e-006 8.39832e-007 -1.32639e-006 -6.17593 -28.4825 -6.97542 0.0575732 73.6844 -1.73912 -2.87572 12.0454 -0.819322 -2.10413e-007 -3.24064e-008 3.4517e-008 8.07894 0.420254 0.101519 -0.000489997 6.56888 1.25389 7.41797 29.8348 -3.49925 -1.86499e-006 1.7067e-007 1.16331e-007 
0.23453 -7.97989 9.6586 -180 -89.9981 -180 1.99979 -0.0143759 0.199511 3.99963 -0.0217702 0.399404 3.99963 -0.0217845 0.399404 -4.24356e-005 27.9976 -3.15495e-006 -2.15353e-007 15.997 1.12754e-006 -4.37643e-005 -6.11275e-006 -12.5014 62.7278 26.4909 -3.55665 -5.45263 -30.0404 -22.2572 -22.6367 4.13618 0.117526 6.36111e-015 -3.18055e-015 -0 -3.18055e-015 -6.36111e-015 1.27222e-014 6.36111e-015 -6.36111e-015 -0 6.36111e-015 -3.18055e-015 -0 -0.0127436 0.00229872 8.14415e-005 6.36111e-015 -9.54166e-015 -0 6.36111e-015 -3.18055e-015 -0 -0.0160052 0.00297913 0.000858937 -0 0 3.18055e-015 6.36111e-015 -3.18055e-015 -0 -0.0124876 0.00308964 0.00280298 -6.36111e-015 2.58525e-007 -6.36111e-015 6.36111e-015 -3.18055e-015 -0 -3.18055e-015 -6.36111e-015 1.27222e-014 6.36111e-015 -6.36111e-015 -0 -0.878597 -9.83523 6.886 -98.1105 -34.2626 -66.1251 170.697 -51.8578 137.035 -7.27937 -16.4866 -0.0140603 6.36111e-015 -9.54166e-015 3.18055e-015 6.36111e-015 -6.36111e-015 -6.36111e-015 1.27222e-014 -2.54444e-014 3.18055e-015 6.36111e-015 -9.54166e-015 3.18055e-015 0.0129524 0.00231439 -8.33706e-005 3.18055e-015 -9.54166e-015 -0 6.36111e-015 -9.54166e-015 3.18055e-015 0.0163361 0.00302318 -0.000876117 -0 -3.18055e-015 -0 6.36111e-015 -9.54166e-015 3.18055e-015 0.0145826 0.0036812 -0.00326542 -6.36111e-015 -6.36111e-015 9.54166e-015 6.36111e-015 -9.54166e-015 3.18055e-015 6.36111e-015 -6.36111e-015 -6.36111e-015 1.27222e-014 -2.54444e-014 3.18055e-015 -11.188 -38.0554 -10.777 179.999 81.5228 177.553 -2.43662 16.9991 -1.26807 -1.19271e-015 -1.59028e-015 -0 12.0406 -1.14059 0.10217 -0.00101023 11.0523 1.87102 9.95121 39.7281 -5.16417 6.5238e-007 -9.34203e-008 -5.48793e-007 
